<svg width="135" height="46" viewBox="0 0 135 46" fill="none" xmlns="http://www.w3.org/2000/svg">
<path d="M64.6 21.304C63.2447 21.304 62.0477 21.057 61.009 20.563C59.983 20.0563 59.185 19.3533 58.615 18.454C58.0577 17.5547 57.779 16.5223 57.779 15.357C57.779 13.8117 58.1337 12.4373 58.843 11.234C59.565 10.0307 60.5593 9.09333 61.826 8.422C63.1053 7.738 64.5557 7.396 66.177 7.396C67.4563 7.396 68.59 7.63033 69.578 8.099C70.566 8.555 71.3007 9.20733 71.782 10.056L68.552 12.583C67.9567 11.5443 67.07 11.025 65.892 11.025C65.1953 11.025 64.5747 11.196 64.03 11.538C63.4853 11.88 63.061 12.3613 62.757 12.982C62.453 13.59 62.301 14.2867 62.301 15.072C62.301 15.8573 62.548 16.4907 63.042 16.972C63.5487 17.4407 64.2137 17.675 65.037 17.675C66.1643 17.675 67.1523 17.162 68.001 16.136L70.642 18.663C69.8693 19.613 68.989 20.2907 68.001 20.696C67.0257 21.1013 65.892 21.304 64.6 21.304ZM80.6811 18.682H75.6081L74.2781 21H69.5471L78.0211 7.7H82.4291L85.5831 21H81.1181L80.6811 18.682ZM80.0541 15.452L79.4081 12.051L77.4511 15.452H80.0541ZM91.5807 21.304C90.4281 21.304 89.3451 21.1837 88.3317 20.943C87.3184 20.6897 86.4824 20.3603 85.8237 19.955L87.5527 16.649C88.9841 17.4723 90.4787 17.884 92.0367 17.884C92.6067 17.884 93.0437 17.8143 93.3477 17.675C93.6517 17.5357 93.8037 17.3457 93.8037 17.105C93.8037 16.877 93.6454 16.6933 93.3287 16.554C93.0247 16.4147 92.5371 16.2627 91.8657 16.098C90.9791 15.87 90.2444 15.642 89.6617 15.414C89.0791 15.1733 88.5661 14.8123 88.1227 14.331C87.6921 13.837 87.4767 13.191 87.4767 12.393C87.4767 11.3923 87.7427 10.5183 88.2747 9.771C88.8194 9.011 89.5984 8.42833 90.6117 8.023C91.6251 7.605 92.8221 7.396 94.2027 7.396C95.1907 7.396 96.1091 7.49733 96.9577 7.7C97.8191 7.89 98.5601 8.16867 99.1807 8.536L97.5657 11.804C97.0464 11.4747 96.4701 11.2277 95.8367 11.063C95.2161 10.8983 94.5764 10.816 93.9177 10.816C93.2971 10.816 92.8157 10.9047 92.4737 11.082C92.1317 11.2593 91.9607 11.4683 91.9607 11.709C91.9607 11.9497 92.1127 12.1397 92.4167 12.279C92.7334 12.4183 93.2464 12.5703 93.9557 12.735C94.8171 12.9377 95.5391 13.153 96.1217 13.381C96.7171 13.609 97.2301 13.9637 97.6607 14.445C98.0914 14.9263 98.3067 15.5597 98.3067 16.345C98.3067 17.333 98.0344 18.2007 97.4897 18.948C96.9451 19.6953 96.1661 20.278 95.1527 20.696C94.1394 21.1013 92.9487 21.304 91.5807 21.304ZM114.556 7.7L111.896 21H107.412L108.4 16.098H104.258L103.27 21H98.786L101.446 7.7H105.93L104.98 12.412H109.122L110.072 7.7H114.556ZM67.241 32.989H71.136L69.996 38.727C69.2867 39.2337 68.4697 39.6263 67.545 39.905C66.633 40.171 65.6513 40.304 64.6 40.304C63.2447 40.304 62.0477 40.057 61.009 39.563C59.983 39.0563 59.185 38.3533 58.615 37.454C58.0577 36.5547 57.779 35.5223 57.779 34.357C57.779 32.8117 58.14 31.4373 58.862 30.234C59.584 29.0307 60.591 28.0933 61.883 27.422C63.175 26.738 64.657 26.396 66.329 26.396C69.0903 26.396 71.1043 27.2637 72.371 28.999L69.16 31.488C68.742 30.956 68.2923 30.5823 67.811 30.367C67.3297 30.139 66.766 30.025 66.12 30.025C65.3473 30.025 64.6697 30.196 64.087 30.538C63.517 30.88 63.0737 31.3613 62.757 31.982C62.453 32.59 62.301 33.2867 62.301 34.072C62.301 34.8573 62.5607 35.4907 63.08 35.972C63.5993 36.4407 64.315 36.675 65.227 36.675C65.683 36.675 66.12 36.6117 66.538 36.485L67.241 32.989ZM85.7955 31.07C85.7955 32.248 85.4789 33.2803 84.8455 34.167C84.2249 35.041 83.3445 35.6933 82.2045 36.124L84.4275 40H79.7725L77.8915 36.656H76.7895L76.1245 40H71.6405L74.3005 26.7H80.2665C82.0145 26.7 83.3699 27.0863 84.3325 27.859C85.3079 28.619 85.7955 29.6893 85.7955 31.07ZM81.2545 31.507C81.2545 30.6077 80.6972 30.158 79.5825 30.158H78.0815L77.4545 33.274H79.2975C79.9182 33.274 80.3995 33.122 80.7415 32.818C81.0835 32.5013 81.2545 32.0643 81.2545 31.507ZM95.4878 37.682H90.4148L89.0848 40H84.3538L92.8278 26.7H97.2358L100.39 40H95.9248L95.4878 37.682ZM94.8608 34.452L94.2148 31.051L92.2578 34.452H94.8608ZM116.875 26.7L114.215 40H110.529L106.71 33.806L105.475 40H101.105L103.765 26.7H107.451L111.27 32.894L112.505 26.7H116.875ZM121.221 30.177H117.326L118.029 26.7H130.303L129.6 30.177H125.705L123.748 40H119.264L121.221 30.177Z" fill="white"/>
<path d="M46 23C46 28.8513 43.8146 34.1921 40.2152 38.2513C39.498 39.0615 38.7245 39.82 37.9002 40.5213C35.9786 42.1576 33.7847 43.4822 31.3946 44.4191C30.4464 44.7918 29.4682 45.1026 28.4628 45.3457C28.4149 45.3588 28.367 45.3701 28.3191 45.3813C26.6124 45.786 24.8306 46 23 46C10.2974 46 0 35.7026 0 23C0 10.2974 10.2974 0 23 0C28.5219 0 33.5875 1.94512 37.552 5.18866C37.9275 5.49466 38.2918 5.81298 38.6466 6.14343C43.1696 10.3425 46 16.3403 46 23Z" fill="white"/>
<path d="M23.3561 27.2218C23.3561 27.2218 23.0885 29.6044 21.9153 33.517C21.4791 34.9743 20.9157 36.6449 20.1952 38.4822L14.1016 34.3514V24.9664C15.62 17.5642 15.4482 12.7065 15.4482 12.7065L21.1768 16.0111L23.3561 27.2218Z" fill="#2F80ED"/>
<path d="M20.1961 38.4824C19.1048 33.79 14.7162 24.611 10.7254 20.5312C10.6534 20.4576 10.5548 20.4175 10.4518 20.4175H1.02576C0.693611 20.4175 0.520212 20.8095 0.741857 21.0568C4.59481 25.3545 8.67452 33.982 9.72111 38.4825H20.1961V38.4824Z" fill="#202020"/>
<path d="M40.9671 31.3428C40.8216 33.5584 40.5803 35.8687 40.2151 38.2513C39.4979 39.0614 38.7243 39.82 37.9001 40.5213C35.9784 42.1576 33.7846 43.4822 31.3944 44.419C30.4463 44.7917 29.4681 45.1025 28.4627 45.3456L29.7591 31.8629L30.7787 21.2585C30.3505 13.7079 29.0025 8.23017 28.4111 6.13205C28.2778 5.65794 28.6326 5.1886 29.1245 5.1886H37.8139C38.1434 5.1886 38.4325 5.40359 38.5245 5.71904C38.5602 5.84015 38.6015 5.98192 38.6465 6.14337C39.481 9.10516 41.797 18.705 40.9671 31.3428Z" fill="#202020"/>
<path d="M37.9 40.5214C35.1794 42.8374 31.9125 44.531 28.3189 45.3814C26.9943 29.2185 15.4492 12.7064 15.4492 12.7064H25.7166C25.7166 12.7064 35.0602 26.0709 37.9 40.5214Z" fill="#D23737"/>
</svg>
